# xmcd
#
# Track frame offsets:
#	183
#	20120
#	40300
#	66298
#
# Disc length: 1128 seconds
#
# Revision: 0
# Processed by: cddbd v1.5.1PL0 Copyright (c) Steve Scherf et al.
# Submitted via: audiograbber 1.83.01
#
DISCID=34046604
DTITLE=Cliff Richard - We should be together (M-CD)
DYEAR=1988
DGENRE=Pop
TTITLE0=We should be together
TTITLE1=The twelve days of Christmas (Acappella)
TTITLE2=Silent Night
TTITLE3=Mistletoe and wine
EXTD=ba R.F.
EXTT0=
EXTT1=
EXTT2=
EXTT3=
PLAYORDER=
